<?xml version="1.0" encoding="utf-8" standalone="no"?>
<!DOCTYPE svg PUBLIC "-//W3C//DTD SVG 1.1//EN"
  "http://www.w3.org/Graphics/SVG/1.1/DTD/svg11.dtd">
<svg xmlns:xlink="http://www.w3.org/1999/xlink" width="266.112pt" height="266.112pt" viewBox="0 0 266.112 266.112" xmlns="http://www.w3.org/2000/svg" version="1.1">
 <metadata>
  <rdf:RDF xmlns:dc="http://purl.org/dc/elements/1.1/" xmlns:cc="http://creativecommons.org/ns#" xmlns:rdf="http://www.w3.org/1999/02/22-rdf-syntax-ns#">
   <cc:Work>
    <dc:type rdf:resource="http://purl.org/dc/dcmitype/StillImage"/>
    <dc:date>2024-10-23T03:41:27.755208</dc:date>
    <dc:format>image/svg+xml</dc:format>
    <dc:creator>
     <cc:Agent>
      <dc:title>Matplotlib v3.9.2, https://matplotlib.org/</dc:title>
     </cc:Agent>
    </dc:creator>
   </cc:Work>
  </rdf:RDF>
 </metadata>
 <defs>
  <style type="text/css">*{stroke-linejoin: round; stroke-linecap: butt}</style>
 </defs>
 <g id="figure_1">
  <g id="patch_1">
   <path d="M 0 266.112 
L 266.112 266.112 
L 266.112 0 
L 0 0 
z
" style="fill: #ffffff"/>
  </g>
  <g id="axes_1">
   <g id="patch_2">
    <path d="M 133.056 172.9728 
C 154.228118 172.9728 174.535932 168.766914 189.50688 161.28144 
C 204.477828 153.795966 212.8896 143.642059 212.8896 133.056 
C 212.8896 122.469941 204.477828 112.316034 189.50688 104.83056 
C 174.535932 97.345086 154.228118 93.1392 133.056 93.1392 
C 111.883882 93.1392 91.576068 97.345086 76.60512 104.83056 
C 61.634172 112.316034 53.2224 122.469941 53.2224 133.056 
C 53.2224 143.642059 61.634172 153.795966 76.60512 161.28144 
C 91.576068 168.766914 111.883882 172.9728 133.056 172.9728 
z
" clip-path="url(#pda85f3bb5a)" style="fill: #ffff00"/>
   </g>
   <g id="patch_3">
    <path d="M 101.12256 172.9728 
L 127.73376 172.9728 
L 127.73376 93.1392 
L 101.12256 93.1392 
z
" clip-path="url(#pda85f3bb5a)"/>
   </g>
   <g id="patch_4">
    <path d="M 114.42816 172.9728 
L 141.03936 172.9728 
L 141.03936 93.1392 
L 114.42816 93.1392 
z
" clip-path="url(#pda85f3bb5a)"/>
   </g>
   <g id="patch_5">
    <path d="M 127.73376 172.9728 
L 154.34496 172.9728 
L 154.34496 93.1392 
L 127.73376 93.1392 
z
" clip-path="url(#pda85f3bb5a)"/>
   </g>
   <g id="patch_6">
    <path d="M 93.1392 146.3616 
C 100.196573 146.3616 106.965844 140.753752 111.95616 130.77312 
C 116.946476 120.792488 119.7504 107.253945 119.7504 93.1392 
C 119.7504 79.024455 116.946476 65.485912 111.95616 55.50528 
C 106.965844 45.524648 100.196573 39.9168 93.1392 39.9168 
C 86.081827 39.9168 79.312556 45.524648 74.32224 55.50528 
C 69.331924 65.485912 66.528 79.024455 66.528 93.1392 
C 66.528 107.253945 69.331924 120.792488 74.32224 130.77312 
C 79.312556 140.753752 86.081827 146.3616 93.1392 146.3616 
z
" clip-path="url(#pda85f3bb5a)" style="fill: #add8e6"/>
   </g>
   <g id="patch_7">
    <path d="M 172.9728 146.3616 
C 180.030173 146.3616 186.799444 140.753752 191.78976 130.77312 
C 196.780076 120.792488 199.584 107.253945 199.584 93.1392 
C 199.584 79.024455 196.780076 65.485912 191.78976 55.50528 
C 186.799444 45.524648 180.030173 39.9168 172.9728 39.9168 
C 165.915427 39.9168 159.146156 45.524648 154.15584 55.50528 
C 149.165524 65.485912 146.3616 79.024455 146.3616 93.1392 
C 146.3616 107.253945 149.165524 120.792488 154.15584 130.77312 
C 159.146156 140.753752 165.915427 146.3616 172.9728 146.3616 
z
" clip-path="url(#pda85f3bb5a)" style="fill: #add8e6"/>
   </g>
  </g>
 </g>
 <defs>
  <clipPath id="pda85f3bb5a">
   <rect x="0" y="-0" width="266.112" height="266.112"/>
  </clipPath>
 </defs>
</svg>
