<?xml version="1.0" encoding="utf-8" standalone="no"?>
<!DOCTYPE svg PUBLIC "-//W3C//DTD SVG 1.1//EN"
  "http://www.w3.org/Graphics/SVG/1.1/DTD/svg11.dtd">
<svg xmlns:xlink="http://www.w3.org/1999/xlink" width="266.112pt" height="266.112pt" viewBox="0 0 266.112 266.112" xmlns="http://www.w3.org/2000/svg" version="1.1">
 <metadata>
  <rdf:RDF xmlns:dc="http://purl.org/dc/elements/1.1/" xmlns:cc="http://creativecommons.org/ns#" xmlns:rdf="http://www.w3.org/1999/02/22-rdf-syntax-ns#">
   <cc:Work>
    <dc:type rdf:resource="http://purl.org/dc/dcmitype/StillImage"/>
    <dc:date>2024-10-23T03:41:28.094545</dc:date>
    <dc:format>image/svg+xml</dc:format>
    <dc:creator>
     <cc:Agent>
      <dc:title>Matplotlib v3.9.2, https://matplotlib.org/</dc:title>
     </cc:Agent>
    </dc:creator>
   </cc:Work>
  </rdf:RDF>
 </metadata>
 <defs>
  <style type="text/css">*{stroke-linejoin: round; stroke-linecap: butt}</style>
 </defs>
 <g id="figure_1">
  <g id="patch_1">
   <path d="M 0 266.112 
L 266.112 266.112 
L 266.112 0 
L 0 0 
z
" style="fill: #ffffff"/>
  </g>
  <g id="axes_1">
   <g id="patch_2">
    <path d="M 79.8336 212.8896 
L 186.2784 212.8896 
L 186.2784 53.2224 
L 79.8336 53.2224 
z
" clip-path="url(#p36e213ca2b)" style="fill: #ffa500"/>
   </g>
   <g id="patch_3">
    <path d="M 133.056 66.528 
C 150.699432 66.528 167.62261 63.724076 180.0984 58.73376 
C 192.57419 53.743444 199.584 46.974173 199.584 39.9168 
C 199.584 32.859427 192.57419 26.090156 180.0984 21.09984 
C 167.62261 16.109524 150.699432 13.3056 133.056 13.3056 
C 115.412568 13.3056 98.48939 16.109524 86.0136 21.09984 
C 73.53781 26.090156 66.528 32.859427 66.528 39.9168 
C 66.528 46.974173 73.53781 53.743444 86.0136 58.73376 
C 98.48939 63.724076 115.412568 66.528 133.056 66.528 
z
" clip-path="url(#p36e213ca2b)" style="fill: #ffff00"/>
   </g>
  </g>
 </g>
 <defs>
  <clipPath id="p36e213ca2b">
   <rect x="0" y="-0" width="266.112" height="266.112"/>
  </clipPath>
 </defs>
</svg>
