<?xml version="1.0" encoding="utf-8" standalone="no"?>
<!DOCTYPE svg PUBLIC "-//W3C//DTD SVG 1.1//EN"
  "http://www.w3.org/Graphics/SVG/1.1/DTD/svg11.dtd">
<svg xmlns:xlink="http://www.w3.org/1999/xlink" width="266.112pt" height="266.112pt" viewBox="0 0 266.112 266.112" xmlns="http://www.w3.org/2000/svg" version="1.1">
 <metadata>
  <rdf:RDF xmlns:dc="http://purl.org/dc/elements/1.1/" xmlns:cc="http://creativecommons.org/ns#" xmlns:rdf="http://www.w3.org/1999/02/22-rdf-syntax-ns#">
   <cc:Work>
    <dc:type rdf:resource="http://purl.org/dc/dcmitype/StillImage"/>
    <dc:date>2024-10-23T03:41:27.344621</dc:date>
    <dc:format>image/svg+xml</dc:format>
    <dc:creator>
     <cc:Agent>
      <dc:title>Matplotlib v3.9.2, https://matplotlib.org/</dc:title>
     </cc:Agent>
    </dc:creator>
   </cc:Work>
  </rdf:RDF>
 </metadata>
 <defs>
  <style type="text/css">*{stroke-linejoin: round; stroke-linecap: butt}</style>
 </defs>
 <g id="figure_1">
  <g id="patch_1">
   <path d="M 0 266.112 
L 266.112 266.112 
L 266.112 0 
L 0 0 
z
" style="fill: #ffffff"/>
  </g>
  <g id="axes_1">
   <g id="patch_2">
    <path d="M 133.056 239.5008 
C 161.285491 239.5008 188.362575 228.285104 208.32384 208.32384 
C 228.285104 188.362575 239.5008 161.285491 239.5008 133.056 
C 239.5008 104.826509 228.285104 77.749425 208.32384 57.78816 
C 188.362575 37.826896 161.285491 26.6112 133.056 26.6112 
C 104.826509 26.6112 77.749425 37.826896 57.78816 57.78816 
C 37.826896 77.749425 26.6112 104.826509 26.6112 133.056 
C 26.6112 161.285491 37.826896 188.362575 57.78816 208.32384 
C 77.749425 228.285104 104.826509 239.5008 133.056 239.5008 
z
" clip-path="url(#p4e79648efa)" style="fill: #ffff00"/>
   </g>
   <g id="text_1">
    <!-- i -->
    <g style="fill: #0000ff" transform="translate(121.9435 155.131) scale(0.8 -0.8)">
     <defs>
      <path id="DejaVuSans-69" d="M 603 3500 
L 1178 3500 
L 1178 0 
L 603 0 
L 603 3500 
z
M 603 4863 
L 1178 4863 
L 1178 4134 
L 603 4134 
L 603 4863 
z
" transform="scale(0.015625)"/>
     </defs>
     <use xlink:href="#DejaVuSans-69"/>
    </g>
   </g>
  </g>
 </g>
 <defs>
  <clipPath id="p4e79648efa">
   <rect x="0" y="-0" width="266.112" height="266.112"/>
  </clipPath>
 </defs>
</svg>
