<?xml version="1.0" encoding="utf-8" standalone="no"?>
<!DOCTYPE svg PUBLIC "-//W3C//DTD SVG 1.1//EN"
  "http://www.w3.org/Graphics/SVG/1.1/DTD/svg11.dtd">
<svg xmlns:xlink="http://www.w3.org/1999/xlink" width="266.112pt" height="266.112pt" viewBox="0 0 266.112 266.112" xmlns="http://www.w3.org/2000/svg" version="1.1">
 <metadata>
  <rdf:RDF xmlns:dc="http://purl.org/dc/elements/1.1/" xmlns:cc="http://creativecommons.org/ns#" xmlns:rdf="http://www.w3.org/1999/02/22-rdf-syntax-ns#">
   <cc:Work>
    <dc:type rdf:resource="http://purl.org/dc/dcmitype/StillImage"/>
    <dc:date>2024-10-23T03:41:27.640982</dc:date>
    <dc:format>image/svg+xml</dc:format>
    <dc:creator>
     <cc:Agent>
      <dc:title>Matplotlib v3.9.2, https://matplotlib.org/</dc:title>
     </cc:Agent>
    </dc:creator>
   </cc:Work>
  </rdf:RDF>
 </metadata>
 <defs>
  <style type="text/css">*{stroke-linejoin: round; stroke-linecap: butt}</style>
 </defs>
 <g id="figure_1">
  <g id="patch_1">
   <path d="M 0 266.112 
L 266.112 266.112 
L 266.112 0 
L 0 0 
z
" style="fill: #ffffff"/>
  </g>
  <g id="axes_1">
   <g id="patch_2">
    <path d="M 266.112 133.056 
C 266.112 115.583246 262.670248 98.280393 255.983715 82.137673 
C 249.297182 65.994954 239.495903 51.326303 227.1408 38.9712 
C 214.785697 26.616097 200.117046 16.814818 183.974327 10.128285 
C 167.831607 3.441752 150.528754 -0 133.056 -0 
C 115.583246 -0 98.280393 3.441752 82.137673 10.128285 
C 65.994954 16.814818 51.326303 26.616097 38.9712 38.9712 
C 26.616097 51.326303 16.814818 65.994954 10.128285 82.137673 
C 3.441752 98.280393 0 115.583246 0 133.056 
C 0 150.528754 3.441752 167.831607 10.128285 183.974327 
C 16.814818 200.117046 26.616097 214.785697 38.9712 227.1408 
C 51.326303 239.495903 65.994954 249.297182 82.137673 255.983715 
C 98.280393 262.670248 115.583246 266.112 133.056 266.112 
C 150.528754 266.112 167.831607 262.670248 183.974327 255.983715 
C 200.117046 249.297182 214.785697 239.495903 227.1408 227.1408 
C 239.495903 214.785697 249.297182 200.117046 255.983715 183.974327 
C 262.670248 167.831607 266.112 150.528754 266.112 133.056 
" clip-path="url(#p5a90f08a13)" style="fill: none; stroke: #90ee90; stroke-linejoin: miter"/>
   </g>
   <g id="patch_3">
    <path d="M 239.5008 133.056 
C 239.5008 119.077797 236.747399 105.235514 231.398172 92.321339 
C 226.048945 79.407163 218.207922 67.672242 208.32384 57.78816 
C 198.439758 47.904078 186.704837 40.063055 173.790661 34.713828 
C 160.876486 29.364601 147.034203 26.6112 133.056 26.6112 
C 119.077797 26.6112 105.235514 29.364601 92.321339 34.713828 
C 79.407163 40.063055 67.672242 47.904078 57.78816 57.78816 
C 47.904078 67.672242 40.063055 79.407163 34.713828 92.321339 
C 29.364601 105.235514 26.6112 119.077797 26.6112 133.056 
C 26.6112 147.034203 29.364601 160.876486 34.713828 173.790661 
C 40.063055 186.704837 47.904078 198.439758 57.78816 208.32384 
C 67.672242 218.207922 79.407163 226.048945 92.321339 231.398172 
C 105.235514 236.747399 119.077797 239.5008 133.056 239.5008 
C 147.034203 239.5008 160.876486 236.747399 173.790661 231.398172 
C 186.704837 226.048945 198.439758 218.207922 208.32384 208.32384 
C 218.207922 198.439758 226.048945 186.704837 231.398172 173.790661 
C 236.747399 160.876486 239.5008 147.034203 239.5008 133.056 
" clip-path="url(#p5a90f08a13)" style="fill: none; stroke: #90ee90; stroke-linejoin: miter"/>
   </g>
   <g id="patch_4">
    <path d="M 212.8896 133.056 
C 212.8896 122.572348 210.824549 112.190636 206.812629 102.505004 
C 202.800709 92.819372 196.919942 84.018182 189.50688 76.60512 
C 182.093818 69.192058 173.292628 63.311291 163.606996 59.299371 
C 153.921364 55.287451 143.539652 53.2224 133.056 53.2224 
C 122.572348 53.2224 112.190636 55.287451 102.505004 59.299371 
C 92.819372 63.311291 84.018182 69.192058 76.60512 76.60512 
C 69.192058 84.018182 63.311291 92.819372 59.299371 102.505004 
C 55.287451 112.190636 53.2224 122.572348 53.2224 133.056 
C 53.2224 143.539652 55.287451 153.921364 59.299371 163.606996 
C 63.311291 173.292628 69.192058 182.093818 76.60512 189.50688 
C 84.018182 196.919942 92.819372 202.800709 102.505004 206.812629 
C 112.190636 210.824549 122.572348 212.8896 133.056 212.8896 
C 143.539652 212.8896 153.921364 210.824549 163.606996 206.812629 
C 173.292628 202.800709 182.093818 196.919942 189.50688 189.50688 
C 196.919942 182.093818 202.800709 173.292628 206.812629 163.606996 
C 210.824549 153.921364 212.8896 143.539652 212.8896 133.056 
" clip-path="url(#p5a90f08a13)" style="fill: none; stroke: #90ee90; stroke-linejoin: miter"/>
   </g>
   <g id="patch_5">
    <path d="M 186.2784 133.056 
C 186.2784 126.066898 184.901699 119.145757 182.227086 112.688669 
C 179.552473 106.231581 175.631961 100.364121 170.68992 95.42208 
C 165.747879 90.480039 159.880419 86.559527 153.423331 83.884914 
C 146.966243 81.210301 140.045102 79.8336 133.056 79.8336 
C 126.066898 79.8336 119.145757 81.210301 112.688669 83.884914 
C 106.231581 86.559527 100.364121 90.480039 95.42208 95.42208 
C 90.480039 100.364121 86.559527 106.231581 83.884914 112.688669 
C 81.210301 119.145757 79.8336 126.066898 79.8336 133.056 
C 79.8336 140.045102 81.210301 146.966243 83.884914 153.423331 
C 86.559527 159.880419 90.480039 165.747879 95.42208 170.68992 
C 100.364121 175.631961 106.231581 179.552473 112.688669 182.227086 
C 119.145757 184.901699 126.066898 186.2784 133.056 186.2784 
C 140.045102 186.2784 146.966243 184.901699 153.423331 182.227086 
C 159.880419 179.552473 165.747879 175.631961 170.68992 170.68992 
C 175.631961 165.747879 179.552473 159.880419 182.227086 153.423331 
C 184.901699 146.966243 186.2784 140.045102 186.2784 133.056 
" clip-path="url(#p5a90f08a13)" style="fill: none; stroke: #90ee90; stroke-linejoin: miter"/>
   </g>
   <g id="patch_6">
    <path d="M 159.6672 133.056 
C 159.6672 129.561449 158.97885 126.100879 157.641543 122.872335 
C 156.304236 119.643791 154.343981 116.710061 151.87296 114.23904 
C 149.401939 111.768019 146.468209 109.807764 143.239665 108.470457 
C 140.011121 107.13315 136.550551 106.4448 133.056 106.4448 
C 129.561449 106.4448 126.100879 107.13315 122.872335 108.470457 
C 119.643791 109.807764 116.710061 111.768019 114.23904 114.23904 
C 111.768019 116.710061 109.807764 119.643791 108.470457 122.872335 
C 107.13315 126.100879 106.4448 129.561449 106.4448 133.056 
C 106.4448 136.550551 107.13315 140.011121 108.470457 143.239665 
C 109.807764 146.468209 111.768019 149.401939 114.23904 151.87296 
C 116.710061 154.343981 119.643791 156.304236 122.872335 157.641543 
C 126.100879 158.97885 129.561449 159.6672 133.056 159.6672 
C 136.550551 159.6672 140.011121 158.97885 143.239665 157.641543 
C 146.468209 156.304236 149.401939 154.343981 151.87296 151.87296 
C 154.343981 149.401939 156.304236 146.468209 157.641543 143.239665 
C 158.97885 140.011121 159.6672 136.550551 159.6672 133.056 
" clip-path="url(#p5a90f08a13)" style="fill: none; stroke: #90ee90; stroke-linejoin: miter"/>
   </g>
  </g>
 </g>
 <defs>
  <clipPath id="p5a90f08a13">
   <rect x="0" y="-0" width="266.112" height="266.112"/>
  </clipPath>
 </defs>
</svg>
