<?xml version="1.0" encoding="utf-8" standalone="no"?>
<!DOCTYPE svg PUBLIC "-//W3C//DTD SVG 1.1//EN"
  "http://www.w3.org/Graphics/SVG/1.1/DTD/svg11.dtd">
<svg xmlns:xlink="http://www.w3.org/1999/xlink" width="266.112pt" height="266.112pt" viewBox="0 0 266.112 266.112" xmlns="http://www.w3.org/2000/svg" version="1.1">
 <metadata>
  <rdf:RDF xmlns:dc="http://purl.org/dc/elements/1.1/" xmlns:cc="http://creativecommons.org/ns#" xmlns:rdf="http://www.w3.org/1999/02/22-rdf-syntax-ns#">
   <cc:Work>
    <dc:type rdf:resource="http://purl.org/dc/dcmitype/StillImage"/>
    <dc:date>2024-10-23T03:41:27.870950</dc:date>
    <dc:format>image/svg+xml</dc:format>
    <dc:creator>
     <cc:Agent>
      <dc:title>Matplotlib v3.9.2, https://matplotlib.org/</dc:title>
     </cc:Agent>
    </dc:creator>
   </cc:Work>
  </rdf:RDF>
 </metadata>
 <defs>
  <style type="text/css">*{stroke-linejoin: round; stroke-linecap: butt}</style>
 </defs>
 <g id="figure_1">
  <g id="patch_1">
   <path d="M 0 266.112 
L 266.112 266.112 
L 266.112 0 
L 0 0 
z
" style="fill: #ffffff"/>
  </g>
  <g id="axes_1">
   <g id="patch_2">
    <path d="M 133.056 186.2784 
C 154.228118 186.2784 174.535932 180.670552 189.50688 170.68992 
C 204.477828 160.709288 212.8896 147.170745 212.8896 133.056 
C 212.8896 118.941255 204.477828 105.402712 189.50688 95.42208 
C 174.535932 85.441448 154.228118 79.8336 133.056 79.8336 
C 111.883882 79.8336 91.576068 85.441448 76.60512 95.42208 
C 61.634172 105.402712 53.2224 118.941255 53.2224 133.056 
C 53.2224 147.170745 61.634172 160.709288 76.60512 170.68992 
C 91.576068 180.670552 111.883882 186.2784 133.056 186.2784 
z
" clip-path="url(#pb5910495fa)" style="fill: #808080"/>
   </g>
   <g id="patch_3">
    <path d="M 79.8336 79.8336 
L 106.4448 26.6112 
L 133.056 79.8336 
z
" clip-path="url(#pb5910495fa)" style="fill: #808080"/>
   </g>
   <g id="patch_4">
    <path d="M 159.6672 79.8336 
L 186.2784 26.6112 
L 212.8896 79.8336 
z
" clip-path="url(#pb5910495fa)" style="fill: #808080"/>
   </g>
   <g id="patch_5">
    <path d="M 212.8896 133.056 
L 266.112 133.056 
L 239.5008 186.2784 
z
" clip-path="url(#pb5910495fa)" style="fill: #808080"/>
   </g>
  </g>
 </g>
 <defs>
  <clipPath id="pb5910495fa">
   <rect x="0" y="-0" width="266.112" height="266.112"/>
  </clipPath>
 </defs>
</svg>
